<svg width="66" height="80" viewBox="0 0 66 80" fill="none" xmlns="http://www.w3.org/2000/svg">
<path d="M25.4571 57.6744C23.9109 57.6744 22.6286 56.4093 22.6286 54.8837C22.6286 48.6698 22.6286 40.9302 36.7714 40.9302H51.8571C60.3429 40.9302 60.3429 39.814 60.3429 32.5581V25.1163C60.3429 17.8605 60.3429 16.7442 51.8571 16.7442H48.0857C46.5394 16.7442 45.2571 15.4791 45.2571 13.9535C45.2571 12.4279 46.5394 11.1628 48.0857 11.1628H51.8571C65.0571 11.1628 66 16.4465 66 25.1163V32.5581C66 41.2279 65.0571 46.5116 51.8571 46.5116H36.7714C28.2857 46.5116 28.2857 48.7814 28.2857 54.8837C28.2857 56.4093 27.0034 57.6744 25.4571 57.6744Z" fill="#4E6BFF"/>
<path d="M32.9999 27.907H17.9141C16.7073 27.907 15.6136 27.1256 15.2364 26.0093C12.6341 18.2326 12.6341 9.67442 15.2364 1.93488C15.6136 0.781395 16.7073 0 17.9141 0H32.9999C34.2067 0 35.3004 0.781395 35.6776 1.89767C38.3176 9.67442 38.3176 18.2326 35.6776 25.9721C35.3004 27.1256 34.2444 27.907 32.9999 27.907ZM20.0261 22.3256H30.9256C32.3964 16.8558 32.3964 11.0512 30.9256 5.5814H20.0261C18.5553 11.0512 18.5553 16.8558 20.0261 22.3256Z" fill="#4E6BFF"/>
<path d="M17.9141 27.907H14.1429C5.016 27.907 0 22.9581 0 13.9535C0 4.94884 5.016 0 14.1429 0H17.9141C18.8947 0 19.8 0.483721 20.328 1.33953C20.856 2.15814 20.8937 3.2 20.4411 4.05581C17.0469 10.7163 17.0469 17.2279 20.4411 23.8884C20.8937 24.7442 20.8183 25.786 20.328 26.6047C19.8 27.4233 18.8947 27.907 17.9141 27.907ZM13.6903 5.5814C8.07086 5.73023 5.65714 8.22326 5.65714 13.9535C5.65714 19.6465 8.07086 22.1767 13.6526 22.3256C11.7669 16.7442 11.7669 11.1628 13.6903 5.5814Z" fill="#4E6BFF"/>
<path d="M36.7715 27.907H32.9999C32.0193 27.907 31.1144 27.4233 30.5864 26.5674C30.0584 25.7488 30.0207 24.707 30.4732 23.8512C33.8298 17.1907 33.8298 10.6791 30.4732 4.0186C30.0207 3.16279 30.0961 2.12093 30.5864 1.30233C31.1144 0.483721 32.0193 0 32.9999 0H36.7715C45.8984 0 50.9144 4.94884 50.9144 13.9535C50.9144 22.9581 45.8984 27.907 36.7715 27.907ZM37.2241 5.5814C39.1098 11.1628 39.1098 16.7442 37.2241 22.3256C42.8435 22.1767 45.2195 19.6837 45.2195 13.9535C45.2572 8.22326 42.8435 5.73023 37.2241 5.5814Z" fill="#4E6BFF"/>
<path d="M27.3429 80H23.5714C19.6869 80 15.0857 78.5488 15.0857 71.6279V60.4651C15.0857 53.5442 19.6869 52.093 23.5714 52.093H27.3429C31.2274 52.093 35.8286 53.5442 35.8286 60.4651V71.6279C35.8286 78.5488 31.2274 80 27.3429 80ZM23.5714 57.6744C20.7429 57.6744 20.7429 58.493 20.7429 60.4651V71.6279C20.7429 73.6 20.7429 74.4186 23.5714 74.4186H27.3429C30.1714 74.4186 30.1714 73.6 30.1714 71.6279V60.4651C30.1714 58.493 30.1714 57.6744 27.3429 57.6744H23.5714Z" fill="#4E6BFF"/>
</svg>
