<svg width="62" height="80" viewBox="0 0 62 80" fill="none" xmlns="http://www.w3.org/2000/svg">
<path fill-rule="evenodd" clip-rule="evenodd" d="M39.4902 52.0317C39.4902 48.83 39.9439 47.8814 44.5083 41.817C52.9903 30.8031 44.9382 14.0794 31.0059 14.2188C17.0749 14.0816 9.02053 30.802 17.5044 41.8172C22.0686 47.8814 22.5221 48.83 22.5221 52.0317H39.4902Z" fill="#4E6BFF"/>
<path d="M39.4906 50.4683H22.5226C21.6707 50.4683 20.9801 51.1678 20.9801 52.0308V62.3435C20.9801 65.1005 23.1944 67.3436 25.9162 67.3436H29.4641V78.4375C29.4641 79.3005 30.1547 80 31.0066 80C31.8586 80 32.5492 79.3005 32.5492 78.4375V67.3436H36.097C38.8188 67.3436 41.0331 65.1005 41.0331 62.3435V52.0308C41.0331 51.1678 40.3426 50.4683 39.4906 50.4683ZM37.9481 53.5933V57.3434H24.0652V53.5933H37.9481ZM36.097 64.2185H25.9162C24.8955 64.2185 24.0652 63.3774 24.0652 62.3435V60.4684H37.9481V62.3435C37.9481 63.3774 37.1176 64.2185 36.097 64.2185Z" fill="#4E6BFF"/>
<path d="M31.0064 23.593C27.2981 23.593 23.8118 25.0559 21.1897 27.712C20.5873 28.3222 20.5873 29.3115 21.1897 29.9217C21.792 30.5319 22.7688 30.5319 23.3711 29.9217C27.3902 25.6785 34.6224 25.6787 38.6414 29.9219C38.9426 30.2269 39.3374 30.3794 39.7321 30.3794C41.0711 30.4034 41.8005 28.6731 40.8229 27.712C38.201 25.0559 34.7147 23.593 31.0064 23.593Z" fill="white"/>
<path d="M35.3678 34.8C36.7085 34.8237 37.4351 33.0934 36.4585 32.1326C33.5877 29.1021 28.4218 29.1019 25.551 32.1328C24.1579 33.6451 26.2378 35.7547 27.7326 34.3425C28.6066 33.4572 29.7686 32.9695 31.0048 32.9695C32.241 32.9695 33.403 33.4572 34.277 34.3425C34.5781 34.6475 34.973 34.8 35.3678 34.8Z" fill="white"/>
<path d="M29.4626 37.45C29.4626 38.3135 30.154 39.0133 31.0064 39.0125C32.0282 38.9742 32.5388 38.2121 32.5385 37.45C32.5383 36.6877 32.027 35.9255 31.0052 35.8875C30.1532 35.8875 29.4626 36.587 29.4626 37.45Z" fill="white"/>
<path d="M31.0067 8.75014C31.8587 8.75014 32.5493 8.0506 32.5493 7.18762V1.56253C32.5493 0.699542 31.8587 0 31.0067 0C30.1548 0 29.4642 0.699542 29.4642 1.56253V7.18762C29.4642 8.0506 30.1548 8.75014 31.0067 8.75014Z" fill="#4E6BFF"/>
<path d="M46.5088 4.20775C45.7713 3.77619 44.8277 4.03228 44.4017 4.77964L41.6251 9.65128C41.1991 10.3986 41.4519 11.3543 42.1897 11.7857C42.9144 12.2134 43.8684 11.9679 44.2968 11.2138L47.0734 6.34216C47.4994 5.59481 47.2466 4.63917 46.5088 4.20775Z" fill="#4E6BFF"/>
<path d="M51.7126 20.8605C51.9742 20.8605 52.2395 20.7929 52.4825 20.6509L57.2917 17.8383C59.0238 16.7441 57.5536 14.1589 55.7491 15.132L50.9399 17.9446C49.5757 18.7527 50.1554 20.8598 51.7126 20.8605Z" fill="#4E6BFF"/>
<path d="M60.4674 29.845H54.9142C52.8718 29.921 52.8694 32.8934 54.9142 32.9701H60.4674C62.5097 32.8941 62.512 29.9218 60.4674 29.845Z" fill="#4E6BFF"/>
<path d="M57.291 44.9758L52.4818 42.1633C51.744 41.7315 50.8007 41.9878 50.3747 42.7352C49.9486 43.4825 50.2014 44.4382 50.9392 44.8696L55.7484 47.6821C55.9914 47.8243 56.2565 47.8918 56.5183 47.8918C58.0741 47.8909 58.6564 45.785 57.291 44.9758Z" fill="#4E6BFF"/>
<path d="M17.6092 4.78042C16.5288 3.02586 13.9771 4.51495 14.9375 6.34295L17.7141 11.2146C18.8011 12.9732 21.3452 11.4732 20.3858 9.65206L17.6092 4.78042Z" fill="#4E6BFF"/>
<path d="M11.0694 17.9441L6.26023 15.1315C5.52274 14.7003 4.57916 14.9561 4.15311 15.7034C3.72706 16.4508 3.97988 17.4064 4.71768 17.8378L9.52687 20.6504C9.76982 20.7926 10.035 20.8601 10.2968 20.8601C11.8526 20.8591 12.435 18.7535 11.0694 17.9441Z" fill="#4E6BFF"/>
<path d="M8.63824 31.4076C8.63824 30.5446 7.94764 29.845 7.0957 29.845H1.54254C0.690596 29.845 0 30.5446 0 31.4076C0 32.2705 0.690596 32.9701 1.54254 32.9701H7.0957C7.94764 32.9701 8.63824 32.2705 8.63824 31.4076Z" fill="#4E6BFF"/>
<path d="M9.52501 42.1625L4.71583 44.9751C2.97939 46.0755 4.46193 48.654 6.25837 47.6813L11.0676 44.8688C12.7997 43.7746 11.3296 41.1895 9.52501 42.1625Z" fill="#4E6BFF"/>
</svg>
