<svg width="76" height="80" viewBox="0 0 76 80" fill="none" xmlns="http://www.w3.org/2000/svg">
<path d="M42.6042 80H33.4668C30.9286 80 28.6443 78.9089 27.1213 77.0543C25.7797 75.3815 25.2721 73.2361 25.7435 71.1996L27.2301 64.6179C27.5202 63.3815 28.608 62.5085 29.8771 62.5085H46.1939C47.463 62.5085 48.5508 63.3815 48.8409 64.6179L50.3275 71.1996C50.7989 73.3815 50.3637 75.4907 49.0221 77.1635C47.5355 78.9453 45.2149 80 42.6042 80ZM32.0527 67.8908L31.0374 72.3636C30.9286 72.909 31.1462 73.3453 31.3637 73.5998C31.8351 74.1817 32.5965 74.5089 33.4668 74.5089H42.6042C43.547 74.5089 44.3446 74.2181 44.7798 73.6726C45.0698 73.309 45.1424 72.8726 45.0336 72.3272L44.0183 67.8544H32.0527V67.8908Z" fill="#4E6BFF"/>
<path d="M46.1947 67.8917C45.4333 67.8917 44.7081 67.6008 44.1642 66.9826C43.1852 65.8553 43.2577 64.1459 44.3818 63.1277L50.6547 57.5275C53.1566 55.3092 53.0478 54.7641 51.1986 52.4368L40.1394 38.3636C39.523 37.5999 38.7978 37.1635 38.0363 37.1635C37.2749 37.1635 36.5497 37.5999 35.9333 38.3636L24.8741 52.4368C22.9161 54.9459 22.9523 55.4914 25.3455 57.4551L31.6909 63.1277C32.8149 64.1096 32.9238 65.8553 31.9085 66.9826C30.8932 68.1099 29.189 68.2187 28.0649 67.2005L21.792 61.6003C17.2233 57.8547 16.8245 53.8548 20.5955 49.0547L31.6547 34.9817C33.2863 32.9089 35.6069 31.7088 38.0363 31.7088C40.4657 31.7088 42.7864 32.9089 44.418 34.9817L55.4772 49.0547C59.212 53.7821 58.8494 57.5638 54.2807 61.6003L48.0077 67.2005C47.4638 67.6733 46.8111 67.8917 46.1947 67.8917Z" fill="#4E6BFF"/>
<path d="M38.0354 47.8198C36.5488 47.8198 35.3159 46.5834 35.3159 45.0924V35.8921C35.3159 34.4012 36.5488 33.1648 38.0354 33.1648C39.5221 33.1648 40.7549 34.4012 40.7549 35.8921V45.0924C40.7549 46.6197 39.5221 47.8198 38.0354 47.8198Z" fill="#4E6BFF"/>
<path d="M39.8856 16.364H36.2596C32.7787 16.364 29.9142 13.4912 29.9142 10.0002V6.36378C29.9142 2.87279 32.7787 0 36.2596 0H39.8856C43.3665 0 46.231 2.87279 46.231 6.36378V10.0002C46.231 13.4912 43.4028 16.364 39.8856 16.364ZM36.2596 5.45467C35.752 5.45467 35.3531 5.85468 35.3531 6.36378V10.0002C35.3531 10.5093 35.752 10.9093 36.2596 10.9093H39.8856C40.3932 10.9093 40.7921 10.5093 40.7921 10.0002V6.36378C40.7921 5.85468 40.3932 5.45467 39.8856 5.45467H36.2596Z" fill="#4E6BFF"/>
<path d="M9.97139 49.7101H6.34543C2.86451 49.7101 0 46.8373 0 43.3464V39.7099C0 36.2189 2.86451 33.3459 6.34543 33.3459H9.97139C13.4523 33.3459 16.3168 36.2189 16.3168 39.7099V43.3464C16.3168 46.8373 13.4523 49.7101 9.97139 49.7101ZM6.34543 38.8006C5.8378 38.8006 5.43894 39.2008 5.43894 39.7099V43.3464C5.43894 43.8555 5.8378 44.2555 6.34543 44.2555H9.97139C10.479 44.2555 10.8779 43.8555 10.8779 43.3464V39.7099C10.8779 39.2008 10.479 38.8006 9.97139 38.8006H6.34543Z" fill="#4E6BFF"/>
<path d="M69.6546 49.7101H66.0286C62.5477 49.7101 59.6832 46.8373 59.6832 43.3464V39.7099C59.6832 36.2189 62.5477 33.3459 66.0286 33.3459H69.6546C73.1355 33.3459 76 36.2189 76 39.7099V43.3464C76 46.8373 73.1718 49.7101 69.6546 49.7101ZM66.0286 38.8006C65.521 38.8006 65.1221 39.2008 65.1221 39.7099V43.3464C65.1221 43.8555 65.521 44.2555 66.0286 44.2555H69.6546C70.1622 44.2555 70.5611 43.8555 70.5611 43.3464V39.7099C70.5611 39.2008 70.1622 38.8006 69.6546 38.8006H66.0286Z" fill="#4E6BFF"/>
<path d="M8.08582 38.802C6.59918 38.802 5.36635 37.5656 5.36635 36.0747C5.36635 20.547 16.9694 7.49226 32.3435 5.67404C33.8302 5.52858 35.1718 6.58305 35.3531 8.07399C35.5344 9.56493 34.4466 10.9105 32.9599 11.0923C20.3416 12.5832 10.8053 23.3107 10.8053 36.0747C10.8053 37.5656 9.57247 38.802 8.08582 38.802Z" fill="#4E6BFF"/>
<path d="M67.9143 38.8004C66.4276 38.8004 65.1948 37.564 65.1948 36.0731C65.1948 23.3819 55.731 12.6545 43.1852 11.1272C41.6985 10.9453 40.647 9.59978 40.8283 8.10884C41.0096 6.6179 42.3512 5.5271 43.8741 5.74528C59.1394 7.59987 70.67 20.6546 70.67 36.1095C70.6337 37.5641 69.4372 38.8004 67.9143 38.8004Z" fill="#4E6BFF"/>
</svg>
